<mxfile host="app.diagrams.net" modified="2020-11-27T12:08:36.658Z" agent="5.0 (Windows NT 6.1; Win64; x64) AppleWebKit/537.36 (KHTML, like Gecko) Chrome/86.0.4240.111 Safari/537.36" etag="6MHt8hgqVp-EvbdSkdtI" version="13.10.0" type="github">
  <diagram id="7eF5f-5wSSZ6lIxdxpgN" name="第 1 页">
    <mxGraphModel dx="852" dy="404" grid="1" gridSize="10" guides="1" tooltips="1" connect="1" arrows="1" fold="1" page="1" pageScale="1" pageWidth="827" pageHeight="1169" math="0" shadow="0">
      <root>
        <mxCell id="0" />
        <mxCell id="1" parent="0" />
        <mxCell id="zd9pnpthOWyxjNE9amug-1" value="" style="rounded=0;whiteSpace=wrap;html=1;" vertex="1" parent="1">
          <mxGeometry x="90" y="170" width="160" height="220" as="geometry" />
        </mxCell>
        <mxCell id="zd9pnpthOWyxjNE9amug-26" style="rounded=0;orthogonalLoop=1;jettySize=auto;html=1;exitX=1;exitY=0.5;exitDx=0;exitDy=0;entryX=0;entryY=0.187;entryDx=0;entryDy=0;entryPerimeter=0;" edge="1" parent="1" source="zd9pnpthOWyxjNE9amug-2" target="zd9pnpthOWyxjNE9amug-6">
          <mxGeometry relative="1" as="geometry" />
        </mxCell>
        <mxCell id="zd9pnpthOWyxjNE9amug-2" value="head" style="rounded=0;whiteSpace=wrap;html=1;" vertex="1" parent="1">
          <mxGeometry x="110" y="190" width="120" height="40" as="geometry" />
        </mxCell>
        <mxCell id="zd9pnpthOWyxjNE9amug-33" style="edgeStyle=orthogonalEdgeStyle;rounded=0;orthogonalLoop=1;jettySize=auto;html=1;entryX=0.5;entryY=1;entryDx=0;entryDy=0;" edge="1" parent="1" source="zd9pnpthOWyxjNE9amug-3" target="zd9pnpthOWyxjNE9amug-19">
          <mxGeometry relative="1" as="geometry">
            <Array as="points">
              <mxPoint x="280" y="280" />
              <mxPoint x="280" y="430" />
              <mxPoint x="700" y="430" />
            </Array>
          </mxGeometry>
        </mxCell>
        <mxCell id="zd9pnpthOWyxjNE9amug-3" value="tail" style="rounded=0;whiteSpace=wrap;html=1;" vertex="1" parent="1">
          <mxGeometry x="110" y="260" width="120" height="40" as="geometry" />
        </mxCell>
        <mxCell id="zd9pnpthOWyxjNE9amug-4" value="state" style="rounded=0;whiteSpace=wrap;html=1;" vertex="1" parent="1">
          <mxGeometry x="110" y="320" width="120" height="40" as="geometry" />
        </mxCell>
        <mxCell id="zd9pnpthOWyxjNE9amug-5" value="同步器" style="text;html=1;strokeColor=none;fillColor=none;align=center;verticalAlign=middle;whiteSpace=wrap;rounded=0;" vertex="1" parent="1">
          <mxGeometry x="140" y="140" width="40" height="20" as="geometry" />
        </mxCell>
        <mxCell id="zd9pnpthOWyxjNE9amug-6" value="" style="rounded=0;whiteSpace=wrap;html=1;" vertex="1" parent="1">
          <mxGeometry x="370" y="160" width="100" height="230" as="geometry" />
        </mxCell>
        <mxCell id="zd9pnpthOWyxjNE9amug-7" value="prev" style="text;html=1;strokeColor=none;fillColor=none;align=center;verticalAlign=middle;whiteSpace=wrap;rounded=0;" vertex="1" parent="1">
          <mxGeometry x="394" y="190" width="40" height="20" as="geometry" />
        </mxCell>
        <mxCell id="zd9pnpthOWyxjNE9amug-8" value="waitStatus" style="text;html=1;strokeColor=none;fillColor=none;align=center;verticalAlign=middle;whiteSpace=wrap;rounded=0;" vertex="1" parent="1">
          <mxGeometry x="394" y="230" width="40" height="20" as="geometry" />
        </mxCell>
        <mxCell id="zd9pnpthOWyxjNE9amug-9" value="thread" style="text;html=1;strokeColor=none;fillColor=none;align=center;verticalAlign=middle;whiteSpace=wrap;rounded=0;" vertex="1" parent="1">
          <mxGeometry x="400" y="270" width="40" height="20" as="geometry" />
        </mxCell>
        <mxCell id="zd9pnpthOWyxjNE9amug-10" value="nextWatier" style="text;html=1;strokeColor=none;fillColor=none;align=center;verticalAlign=middle;whiteSpace=wrap;rounded=0;" vertex="1" parent="1">
          <mxGeometry x="400" y="300" width="40" height="20" as="geometry" />
        </mxCell>
        <mxCell id="zd9pnpthOWyxjNE9amug-31" style="edgeStyle=none;rounded=0;orthogonalLoop=1;jettySize=auto;html=1;entryX=0.01;entryY=0.813;entryDx=0;entryDy=0;entryPerimeter=0;" edge="1" parent="1" source="zd9pnpthOWyxjNE9amug-11" target="zd9pnpthOWyxjNE9amug-13">
          <mxGeometry relative="1" as="geometry" />
        </mxCell>
        <mxCell id="zd9pnpthOWyxjNE9amug-11" value="next" style="text;html=1;strokeColor=none;fillColor=none;align=center;verticalAlign=middle;whiteSpace=wrap;rounded=0;" vertex="1" parent="1">
          <mxGeometry x="400" y="340" width="40" height="20" as="geometry" />
        </mxCell>
        <mxCell id="zd9pnpthOWyxjNE9amug-13" value="" style="rounded=0;whiteSpace=wrap;html=1;" vertex="1" parent="1">
          <mxGeometry x="510" y="160" width="100" height="230" as="geometry" />
        </mxCell>
        <mxCell id="zd9pnpthOWyxjNE9amug-29" style="edgeStyle=none;rounded=0;orthogonalLoop=1;jettySize=auto;html=1;exitX=0;exitY=0.5;exitDx=0;exitDy=0;entryX=1.02;entryY=0.183;entryDx=0;entryDy=0;entryPerimeter=0;" edge="1" parent="1" source="zd9pnpthOWyxjNE9amug-14" target="zd9pnpthOWyxjNE9amug-6">
          <mxGeometry relative="1" as="geometry" />
        </mxCell>
        <mxCell id="zd9pnpthOWyxjNE9amug-14" value="prev" style="text;html=1;strokeColor=none;fillColor=none;align=center;verticalAlign=middle;whiteSpace=wrap;rounded=0;" vertex="1" parent="1">
          <mxGeometry x="534" y="190" width="40" height="20" as="geometry" />
        </mxCell>
        <mxCell id="zd9pnpthOWyxjNE9amug-15" value="waitStatus" style="text;html=1;strokeColor=none;fillColor=none;align=center;verticalAlign=middle;whiteSpace=wrap;rounded=0;" vertex="1" parent="1">
          <mxGeometry x="534" y="230" width="40" height="20" as="geometry" />
        </mxCell>
        <mxCell id="zd9pnpthOWyxjNE9amug-16" value="thread" style="text;html=1;strokeColor=none;fillColor=none;align=center;verticalAlign=middle;whiteSpace=wrap;rounded=0;" vertex="1" parent="1">
          <mxGeometry x="540" y="270" width="40" height="20" as="geometry" />
        </mxCell>
        <mxCell id="zd9pnpthOWyxjNE9amug-17" value="nextWatier" style="text;html=1;strokeColor=none;fillColor=none;align=center;verticalAlign=middle;whiteSpace=wrap;rounded=0;" vertex="1" parent="1">
          <mxGeometry x="540" y="300" width="40" height="20" as="geometry" />
        </mxCell>
        <mxCell id="zd9pnpthOWyxjNE9amug-32" style="edgeStyle=none;rounded=0;orthogonalLoop=1;jettySize=auto;html=1;entryX=-0.02;entryY=0.817;entryDx=0;entryDy=0;entryPerimeter=0;" edge="1" parent="1" source="zd9pnpthOWyxjNE9amug-18" target="zd9pnpthOWyxjNE9amug-19">
          <mxGeometry relative="1" as="geometry" />
        </mxCell>
        <mxCell id="zd9pnpthOWyxjNE9amug-18" value="next" style="text;html=1;strokeColor=none;fillColor=none;align=center;verticalAlign=middle;whiteSpace=wrap;rounded=0;" vertex="1" parent="1">
          <mxGeometry x="540" y="340" width="40" height="20" as="geometry" />
        </mxCell>
        <mxCell id="zd9pnpthOWyxjNE9amug-19" value="" style="rounded=0;whiteSpace=wrap;html=1;" vertex="1" parent="1">
          <mxGeometry x="650" y="160" width="100" height="230" as="geometry" />
        </mxCell>
        <mxCell id="zd9pnpthOWyxjNE9amug-30" style="edgeStyle=none;rounded=0;orthogonalLoop=1;jettySize=auto;html=1;entryX=1;entryY=0.17;entryDx=0;entryDy=0;entryPerimeter=0;" edge="1" parent="1" source="zd9pnpthOWyxjNE9amug-20" target="zd9pnpthOWyxjNE9amug-13">
          <mxGeometry relative="1" as="geometry" />
        </mxCell>
        <mxCell id="zd9pnpthOWyxjNE9amug-20" value="prev" style="text;html=1;strokeColor=none;fillColor=none;align=center;verticalAlign=middle;whiteSpace=wrap;rounded=0;" vertex="1" parent="1">
          <mxGeometry x="674" y="190" width="40" height="20" as="geometry" />
        </mxCell>
        <mxCell id="zd9pnpthOWyxjNE9amug-21" value="waitStatus" style="text;html=1;strokeColor=none;fillColor=none;align=center;verticalAlign=middle;whiteSpace=wrap;rounded=0;" vertex="1" parent="1">
          <mxGeometry x="674" y="230" width="40" height="20" as="geometry" />
        </mxCell>
        <mxCell id="zd9pnpthOWyxjNE9amug-22" value="thread" style="text;html=1;strokeColor=none;fillColor=none;align=center;verticalAlign=middle;whiteSpace=wrap;rounded=0;" vertex="1" parent="1">
          <mxGeometry x="680" y="270" width="40" height="20" as="geometry" />
        </mxCell>
        <mxCell id="zd9pnpthOWyxjNE9amug-23" value="nextWatier" style="text;html=1;strokeColor=none;fillColor=none;align=center;verticalAlign=middle;whiteSpace=wrap;rounded=0;" vertex="1" parent="1">
          <mxGeometry x="680" y="300" width="40" height="20" as="geometry" />
        </mxCell>
        <mxCell id="zd9pnpthOWyxjNE9amug-24" value="next" style="text;html=1;strokeColor=none;fillColor=none;align=center;verticalAlign=middle;whiteSpace=wrap;rounded=0;" vertex="1" parent="1">
          <mxGeometry x="680" y="340" width="40" height="20" as="geometry" />
        </mxCell>
        <mxCell id="zd9pnpthOWyxjNE9amug-38" style="rounded=0;orthogonalLoop=1;jettySize=auto;html=1;entryX=0.72;entryY=0.08;entryDx=0;entryDy=0;entryPerimeter=0;" edge="1" parent="1" source="zd9pnpthOWyxjNE9amug-34" target="zd9pnpthOWyxjNE9amug-36">
          <mxGeometry relative="1" as="geometry" />
        </mxCell>
        <mxCell id="zd9pnpthOWyxjNE9amug-39" style="edgeStyle=none;rounded=0;orthogonalLoop=1;jettySize=auto;html=1;entryX=0;entryY=0;entryDx=0;entryDy=0;" edge="1" parent="1" source="zd9pnpthOWyxjNE9amug-34" target="zd9pnpthOWyxjNE9amug-37">
          <mxGeometry relative="1" as="geometry" />
        </mxCell>
        <mxCell id="zd9pnpthOWyxjNE9amug-34" value="1" style="ellipse;whiteSpace=wrap;html=1;aspect=fixed;" vertex="1" parent="1">
          <mxGeometry x="160" y="570" width="50" height="50" as="geometry" />
        </mxCell>
        <mxCell id="zd9pnpthOWyxjNE9amug-44" style="edgeStyle=none;rounded=0;orthogonalLoop=1;jettySize=auto;html=1;" edge="1" parent="1" source="zd9pnpthOWyxjNE9amug-36">
          <mxGeometry relative="1" as="geometry">
            <mxPoint x="120" y="730" as="targetPoint" />
          </mxGeometry>
        </mxCell>
        <mxCell id="zd9pnpthOWyxjNE9amug-45" style="edgeStyle=none;rounded=0;orthogonalLoop=1;jettySize=auto;html=1;" edge="1" parent="1" source="zd9pnpthOWyxjNE9amug-36">
          <mxGeometry relative="1" as="geometry">
            <mxPoint x="160" y="730" as="targetPoint" />
          </mxGeometry>
        </mxCell>
        <mxCell id="zd9pnpthOWyxjNE9amug-36" value="2" style="ellipse;whiteSpace=wrap;html=1;aspect=fixed;" vertex="1" parent="1">
          <mxGeometry x="120" y="650" width="50" height="50" as="geometry" />
        </mxCell>
        <mxCell id="zd9pnpthOWyxjNE9amug-46" style="edgeStyle=none;rounded=0;orthogonalLoop=1;jettySize=auto;html=1;" edge="1" parent="1" source="zd9pnpthOWyxjNE9amug-37">
          <mxGeometry relative="1" as="geometry">
            <mxPoint x="220" y="730" as="targetPoint" />
          </mxGeometry>
        </mxCell>
        <mxCell id="zd9pnpthOWyxjNE9amug-47" style="edgeStyle=none;rounded=0;orthogonalLoop=1;jettySize=auto;html=1;" edge="1" parent="1" source="zd9pnpthOWyxjNE9amug-37">
          <mxGeometry relative="1" as="geometry">
            <mxPoint x="260" y="730" as="targetPoint" />
          </mxGeometry>
        </mxCell>
        <mxCell id="zd9pnpthOWyxjNE9amug-37" value="3" style="ellipse;whiteSpace=wrap;html=1;aspect=fixed;" vertex="1" parent="1">
          <mxGeometry x="210" y="650" width="50" height="50" as="geometry" />
        </mxCell>
        <mxCell id="zd9pnpthOWyxjNE9amug-40" value="null" style="text;html=1;strokeColor=none;fillColor=none;align=center;verticalAlign=middle;whiteSpace=wrap;rounded=0;" vertex="1" parent="1">
          <mxGeometry x="90" y="740" width="40" height="20" as="geometry" />
        </mxCell>
        <mxCell id="zd9pnpthOWyxjNE9amug-41" value="null" style="text;html=1;strokeColor=none;fillColor=none;align=center;verticalAlign=middle;whiteSpace=wrap;rounded=0;" vertex="1" parent="1">
          <mxGeometry x="150" y="740" width="40" height="20" as="geometry" />
        </mxCell>
        <mxCell id="zd9pnpthOWyxjNE9amug-42" value="null" style="text;html=1;strokeColor=none;fillColor=none;align=center;verticalAlign=middle;whiteSpace=wrap;rounded=0;" vertex="1" parent="1">
          <mxGeometry x="200" y="740" width="40" height="20" as="geometry" />
        </mxCell>
        <mxCell id="zd9pnpthOWyxjNE9amug-43" value="null" style="text;html=1;strokeColor=none;fillColor=none;align=center;verticalAlign=middle;whiteSpace=wrap;rounded=0;" vertex="1" parent="1">
          <mxGeometry x="240" y="740" width="40" height="20" as="geometry" />
        </mxCell>
      </root>
    </mxGraphModel>
  </diagram>
</mxfile>
